<svg xmlns="http://www.w3.org/2000/svg" viewBox="0 0 600 260"><rect width="600" height="260" fill="#171c19"/><path d="M455 35c-16 60-16 122-3 188M493 50c-18 56-16 111 2 165M420 72c18-8 37-12 57-10M447 105c18-7 38-8 58-2" fill="none" stroke="#7ea18b" stroke-width="8" stroke-linecap="round"/><circle cx="258" cy="131" r="66" fill="#f3f3ee"/><circle cx="215" cy="88" r="29" fill="#111714"/><circle cx="302" cy="88" r="29" fill="#111714"/><ellipse cx="230" cy="128" rx="18" ry="24" fill="#111714"/><ellipse cx="286" cy="128" rx="18" ry="24" fill="#111714"/><circle cx="258" cy="149" r="13" fill="#111714"/><path d="M246 166c8 7 16 7 24 0" fill="none" stroke="#111714" stroke-width="5" stroke-linecap="round"/></svg>